<svg width="516" height="127" viewBox="0 0 516 127" fill="none" xmlns="http://www.w3.org/2000/svg">
<path d="M4.465 73.8748H20.8442L25.1545 52.4957H6.18912L10.1546 32.8407H28.9476L35.3268 0.0822754H56.1888L49.8095 32.8407H71.7059L78.0851 0.0822754H98.9471L92.5678 32.8407H110.326L106.361 52.4957H88.7747L84.6368 73.8748H104.292L100.326 93.5299H80.8437L74.4645 126.116H53.6026L59.9818 93.5299H37.913L31.5338 126.116H10.6719L17.0511 93.5299H0.499512L4.465 73.8748ZM41.7061 73.8748H63.7749L67.9128 52.4957H46.0164L41.7061 73.8748Z" fill="#F7F7F8"/>
<path d="M217.351 75.4691L131.145 105.814V85.2966L196.662 64.4347L131.145 43.5728V23.0557L217.351 53.2279V75.4691Z" fill="#F7F7F8"/>
<path d="M252.033 126.116H231.171L280.309 0.254686H301.343L252.033 126.116Z" fill="#F7F7F8"/>
<path d="M401.382 86.5466V107.064L315.175 76.7191V54.4779L401.382 24.3057V44.8228L335.865 65.6847L401.382 86.5466Z" fill="#F7F7F8"/>
<path d="M515.201 76.7191L428.994 107.064V86.5466L494.511 65.6847L428.994 44.8228V24.3057L515.201 54.4779V76.7191Z" fill="#F7F7F8"/>
</svg>
