<svg width="183" height="42" viewBox="0 0 183 42" fill="none" xmlns="http://www.w3.org/2000/svg">
<path d="M21.0333 10.5295C18.7539 10.53 16.5472 11.3286 14.7992 12.7855V11.4958C14.7992 11.3223 14.73 11.1559 14.6068 11.0332C14.4837 10.9105 14.3166 10.8416 14.1424 10.8416H11.2989C11.1247 10.8416 10.9576 10.9105 10.8345 11.0332C10.7113 11.1559 10.6421 11.3223 10.6421 11.4958V30.9947C10.6421 31.1685 10.7114 31.3351 10.8348 31.458C10.9581 31.5808 11.1255 31.6499 11.2999 31.6499H14.1414C14.3158 31.6499 14.4832 31.5808 14.6065 31.458C14.7299 31.3351 14.7992 31.1685 14.7992 30.9947V19.5702C14.7992 16.5693 17.3293 14.2185 20.5596 14.2185C23.7899 14.2185 26.321 16.5693 26.321 19.5702V30.9947C26.3209 31.0807 26.3378 31.1659 26.3707 31.2453C26.4037 31.3248 26.452 31.3971 26.513 31.4579C26.5741 31.5188 26.6465 31.567 26.7263 31.6C26.806 31.6329 26.8915 31.6499 26.9779 31.6499H29.8627C29.9491 31.6499 30.0345 31.6329 30.1143 31.6C30.1941 31.567 30.2665 31.5188 30.3275 31.4579C30.3885 31.3971 30.4369 31.3248 30.4698 31.2453C30.5028 31.1659 30.5197 31.0807 30.5195 30.9947V19.4898C30.5195 14.4657 26.3541 10.5295 21.0333 10.5295Z" fill="#F7F7F8"/>
<path d="M67.5314 31.8291L67.6193 31.8435C73.6631 32.8263 78.2174 29.3567 79.8041 26.7813C79.851 26.705 79.8817 26.6199 79.8941 26.5313C79.9066 26.4427 79.9006 26.3525 79.8765 26.2662C79.8527 26.1794 79.8108 26.0985 79.7536 26.0287C79.6964 25.959 79.6252 25.902 79.5445 25.8614L77.2906 24.7035C77.1406 24.6298 76.9683 24.6147 76.8076 24.6612C76.647 24.7078 76.5097 24.8125 76.4228 24.9549C75.1815 26.9812 71.8612 28.8046 68.1251 28.1957L68.0392 28.1824C65.1109 27.7054 62.7308 25.6543 62.0016 23.0099L80.2675 22.9965C80.4235 22.9965 80.5744 22.9411 80.693 22.8403C80.8117 22.7395 80.8904 22.5998 80.915 22.4464C80.9537 22.2518 80.97 22.0534 80.9636 21.8551C81.1405 16.4838 76.8603 11.6812 71.0068 10.6861C64.4903 9.66723 58.6244 13.4994 57.6542 19.4095C57.4808 20.4178 57.4706 21.4473 57.6242 22.4588C58.3762 27.1429 62.4536 31.005 67.5314 31.8291ZM70.1638 14.2752L70.2859 14.2947C73.2617 14.7789 75.7163 16.8557 76.5169 19.5413H61.8434L61.8351 19.53C62.5622 16.0233 66.2436 13.7086 70.1638 14.2752Z" fill="#F7F7F8"/>
<path d="M85.1353 11.4968V30.9947C85.1353 31.1684 85.2046 31.3351 85.3279 31.458C85.4513 31.5808 85.6186 31.6499 85.7931 31.6499H88.6356C88.7218 31.6499 88.8072 31.6329 88.8869 31.6001C88.9666 31.5672 89.039 31.519 89.1 31.4583C89.161 31.3975 89.2094 31.3254 89.2424 31.246C89.2754 31.1667 89.2924 31.0816 89.2924 30.9957V19.5702C89.2924 16.5693 91.8224 14.2185 95.0528 14.2185C98.2831 14.2185 100.814 16.5693 100.814 19.5702V30.9947C100.814 31.0807 100.831 31.1658 100.864 31.2453C100.897 31.3248 100.945 31.397 101.006 31.4579C101.067 31.5188 101.14 31.567 101.219 31.6C101.299 31.6329 101.385 31.6499 101.471 31.6499H104.357C104.531 31.6496 104.698 31.5805 104.821 31.4579C104.944 31.3353 105.013 31.169 105.013 30.9957V19.4898C105.013 14.4657 100.846 10.5274 95.5275 10.5274C93.2477 10.5285 91.0408 11.3274 89.2924 12.7845V11.4958C89.2924 11.3223 89.2232 11.1559 89.1 11.0332C88.9768 10.9105 88.8098 10.8416 88.6356 10.8416H85.7931C85.6186 10.8416 85.4513 10.9106 85.3279 11.0335C85.2046 11.1564 85.1353 11.323 85.1353 11.4968Z" fill="#F7F7F8"/>
<path d="M114.782 30.8731L111.12 39.1062C111.075 39.2059 111.055 39.3154 111.063 39.4246C111.071 39.5339 111.106 39.6395 111.165 39.7318C111.224 39.824 111.306 39.8999 111.403 39.9526C111.499 40.0053 111.607 40.0331 111.717 40.0333H114.705C114.835 40.0325 114.963 39.9928 115.071 39.9194C115.179 39.846 115.263 39.7422 115.312 39.6213L126.663 11.7409C126.703 11.6416 126.718 11.534 126.707 11.4274C126.696 11.3209 126.659 11.2187 126.598 11.1299C126.538 11.0411 126.457 10.9684 126.362 10.9181C126.267 10.8678 126.161 10.8416 126.054 10.8416H123.134C123 10.8416 122.87 10.8819 122.761 10.9572C122.651 11.0324 122.567 11.139 122.519 11.263L116.896 25.8449L111.386 11.264C111.339 11.14 111.254 11.0333 111.145 10.958C111.035 10.8826 110.905 10.842 110.772 10.8416H107.862C107.755 10.8418 107.65 10.868 107.555 10.9179C107.46 10.9678 107.379 11.0399 107.319 11.128C107.259 11.2157 107.221 11.3168 107.209 11.4224C107.197 11.528 107.212 11.6349 107.251 11.7337L114.782 30.8731Z" fill="#F7F7F8"/>
<path d="M148.938 10.8416H146.052C145.878 10.8416 145.711 10.9105 145.588 11.0332C145.465 11.1559 145.395 11.3223 145.395 11.4958V22.9223C145.395 25.9098 142.874 28.2617 139.656 28.273C136.437 28.2617 133.916 25.9119 133.916 22.9223V11.4968C133.916 11.4107 133.899 11.3255 133.866 11.2459C133.833 11.1664 133.785 11.0941 133.724 11.0332C133.662 10.9723 133.59 10.9241 133.51 10.8912C133.43 10.8583 133.344 10.8415 133.258 10.8416H130.372C130.198 10.8416 130.031 10.9105 129.908 11.0332C129.785 11.1559 129.715 11.3223 129.715 11.4958V23.0006C129.715 28.0247 133.883 31.963 139.203 31.963H140.108C145.427 31.963 149.594 28.0258 149.594 23.0006V11.4958C149.594 11.4099 149.577 11.3249 149.544 11.2455C149.511 11.1662 149.463 11.094 149.402 11.0333C149.341 10.9725 149.269 10.9243 149.189 10.8914C149.11 10.8585 149.024 10.8416 148.938 10.8416Z" fill="#F7F7F8"/>
<path d="M53.2936 10.855H50.4553C50.2811 10.855 50.114 10.9239 49.9908 11.0466C49.8676 11.1693 49.7984 11.3356 49.7984 11.5091V12.801C48.0504 11.3437 45.8439 10.5444 43.5643 10.5428C38.4194 10.5428 34.3646 14.2288 34.1029 19.017C34.0904 19.0576 34.0821 19.0993 34.0781 19.1416V23.0006C34.0781 28.0247 38.2456 31.963 43.5653 31.963C45.8226 31.9606 48.0088 31.1761 49.7488 29.7441V30.8185C49.6526 32.8634 48.5365 34.7269 46.8774 35.9693C44.9048 37.2673 42.1472 37.3899 40.5212 37.3487C40.004 37.3363 38.4732 37.3487 38.4732 37.3487C38.2987 37.3487 38.1313 37.4177 38.008 37.5406C37.8846 37.6635 37.8153 37.8301 37.8153 38.0039V40.7029C37.8153 40.7888 37.8323 40.8739 37.8653 40.9533C37.8983 41.0326 37.9467 41.1047 38.0077 41.1655C38.0687 41.2262 38.1411 41.2744 38.2208 41.3073C38.3005 41.3402 38.3859 41.3571 38.4721 41.3571H40.5771C41.9009 41.3643 43.2225 41.2471 44.5242 41.0068C44.5665 41.0065 44.6086 41.003 44.6504 40.9965C45.0372 40.9213 45.4148 40.8235 45.7882 40.7153C47.559 40.226 48.3865 39.6305 48.3865 39.6305V39.6243C51.5476 37.8514 53.729 34.7774 53.9494 31.2038V11.5091C53.9494 11.3358 53.8803 11.1696 53.7573 11.0469C53.6344 10.9243 53.4676 10.8553 53.2936 10.855ZM44.0329 28.274C40.8025 28.274 38.2725 25.9232 38.2725 22.9172V19.5825C38.2725 16.5806 40.8025 14.2257 44.0329 14.2257C47.0088 14.2257 49.3847 16.2221 49.7416 18.882V23.6074C49.3878 26.2755 47.0108 28.274 44.0329 28.274Z" fill="#F7F7F8"/>
<path d="M162.756 18.9871H162.743C159.743 18.4813 157.917 18.06 157.917 16.4807C157.917 15.0962 159.477 14.1649 161.799 14.1649C164.16 14.1649 165.626 15.054 165.922 16.6693C165.949 16.8219 166.028 16.9604 166.147 17.0606C166.266 17.1608 166.416 17.2162 166.572 17.2173H169.532C169.624 17.2176 169.715 17.1986 169.8 17.1615C169.884 17.1244 169.96 17.0701 170.021 17.002C170.083 16.9342 170.129 16.8543 170.157 16.7675C170.185 16.6807 170.195 16.589 170.185 16.4983C169.779 12.9287 166.493 10.5316 162.006 10.5316C157.007 10.5316 153.648 12.9226 153.648 16.4807C153.648 21.1062 157.94 21.8788 161.389 22.499C164.273 23.014 166.552 23.4261 166.552 25.4545C166.552 27.2058 164.842 28.2916 162.09 28.2916C159.266 28.2916 157.653 27.281 157.3 25.2866C157.272 25.1364 157.192 25.0007 157.074 24.9034C156.955 24.806 156.807 24.7531 156.653 24.754H153.654C153.561 24.7539 153.47 24.7733 153.386 24.8107C153.301 24.8482 153.226 24.9029 153.164 24.9713C153.102 25.039 153.055 25.1194 153.027 25.2069C152.998 25.2944 152.99 25.387 153.001 25.4782C153.479 29.5391 156.816 31.9682 161.924 31.9682C167.272 31.9682 170.864 29.2898 170.864 25.3103C170.863 20.35 166.178 19.563 162.756 18.9871Z" fill="#F7F7F8"/>
<path d="M3.28774 2.45917C1.97512 2.45917 0.908691 3.45224 0.908691 4.67299C0.908691 5.89373 1.97616 6.88784 3.28774 6.88784C4.59931 6.88784 5.66678 5.89476 5.66678 4.67299C5.66678 3.45121 4.60035 2.45917 3.28774 2.45917Z" fill="#F7F7F8"/>
<path d="M4.70972 10.8416H1.86727C1.69307 10.8416 1.52601 10.9105 1.40283 11.0332C1.27965 11.1559 1.21045 11.3223 1.21045 11.4958V30.9957C1.21045 31.1692 1.27965 31.3356 1.40283 31.4583C1.52601 31.581 1.69307 31.6499 1.86727 31.6499H4.70972C4.88419 31.6499 5.05152 31.5808 5.17489 31.458C5.29826 31.3351 5.36757 31.1685 5.36757 30.9947V11.4968C5.36757 11.323 5.29826 11.1564 5.17489 11.0335C5.05152 10.9106 4.88419 10.8416 4.70972 10.8416Z" fill="#F7F7F8"/>
<path d="M181.99 6.18427C181.968 6.13352 181.936 6.08819 181.894 6.05151C181.853 6.01483 181.803 5.9877 181.75 5.97206L178.186 4.99958L180.485 2.08113C180.559 1.9865 180.592 1.86714 180.578 1.74839C180.573 1.69076 180.556 1.63479 180.528 1.58382C180.501 1.53286 180.463 1.48792 180.418 1.4517L179.157 0.481291C179.118 0.451181 179.073 0.429799 179.025 0.418614C178.977 0.407428 178.928 0.406704 178.879 0.41649C178.831 0.426276 178.786 0.446341 178.746 0.475308C178.706 0.504275 178.673 0.541459 178.649 0.584307L176.624 3.81593L174.6 0.586368C174.569 0.533514 174.525 0.489455 174.472 0.458424C174.419 0.427394 174.359 0.410436 174.298 0.40918C174.226 0.409623 174.156 0.433096 174.098 0.47614L172.773 1.44655C172.727 1.4825 172.688 1.52741 172.66 1.57857C172.631 1.62973 172.614 1.6861 172.607 1.74427C172.592 1.86409 172.625 1.98503 172.699 2.08113L174.999 5.00061L171.466 5.97206C171.413 5.98754 171.365 6.01391 171.324 6.04944C171.283 6.08496 171.249 6.12882 171.227 6.17809C171.177 6.28502 171.169 6.40635 171.203 6.51907L171.688 8.09007C171.717 8.19149 171.784 8.27763 171.876 8.3301C171.919 8.35392 171.967 8.36785 172.016 8.37089C172.065 8.37392 172.114 8.36596 172.16 8.34761L175.641 6.95277L175.448 10.7695C175.443 10.8817 175.48 10.9918 175.551 11.0786C175.583 11.1191 175.624 11.1519 175.67 11.1747C175.717 11.1976 175.768 11.2098 175.819 11.2104H177.435C177.487 11.2096 177.538 11.1973 177.585 11.1743C177.632 11.1513 177.673 11.1183 177.705 11.0775C177.777 10.9889 177.814 10.8765 177.808 10.7623L177.587 6.95071L181.031 8.34143C181.079 8.35833 181.129 8.3652 181.179 8.3616C181.229 8.358 181.277 8.344 181.322 8.32052C181.366 8.29703 181.405 8.26457 181.436 8.22524C181.467 8.1859 181.489 8.14056 181.501 8.09213L182.018 6.52114C182.05 6.40919 182.04 6.28947 181.99 6.18427Z" fill="#F7F7F8"/>
</svg>
