<svg width="34" height="21" viewBox="0 0 34 21" fill="none" xmlns="http://www.w3.org/2000/svg">
<g clip-path="url(#clip0_1365_1629)">
<path d="M12.4413 6.99109H10.6289C10.4028 6.99109 10.2152 7.1756 10.2152 7.40731V14.6504C10.2152 16.547 8.63299 18.0359 6.6158 18.0402C4.59435 18.0316 3.01216 16.5427 3.01216 14.6504V7.40731C3.01216 7.17989 2.82878 6.99109 2.59849 6.99109H0.794532C0.568505 6.99109 0.380859 7.1756 0.380859 7.40731V14.7019C0.380859 17.8857 2.9951 20.3831 6.33434 20.3831H6.90154C10.2408 20.3831 12.855 17.8857 12.855 14.7019V7.40731C12.855 7.17989 12.6716 6.99109 12.4413 6.99109Z" fill="#F7F7F8"/>
<path d="M21.1115 12.1574C21.1115 12.1574 21.1073 12.1574 21.103 12.1574C19.218 11.8356 18.0751 11.5695 18.0751 10.5697C18.0751 9.6901 19.056 9.10224 20.5102 9.10224C21.9645 9.10224 22.9112 9.66435 23.0989 10.6899C23.1373 10.8916 23.3036 11.0374 23.5083 11.0374H25.3634C25.4828 11.0374 25.5937 10.986 25.6705 10.9001C25.7472 10.8143 25.7856 10.6942 25.7728 10.5826C25.5169 8.32129 23.4571 6.80231 20.6424 6.80231C17.5036 6.80231 15.3969 8.317 15.3969 10.574C15.3969 13.5047 18.0879 13.9939 20.2543 14.3887C22.0626 14.7191 23.4955 14.9765 23.4955 16.2638C23.4955 17.3751 22.4208 18.0617 20.6936 18.0617C18.9664 18.0617 17.9088 17.4223 17.687 16.1565C17.6529 15.9591 17.478 15.8175 17.2819 15.8175H15.3969C15.2775 15.8175 15.1666 15.869 15.0898 15.9548C15.0088 16.0407 14.9747 16.1608 14.9875 16.2767C15.286 18.8512 17.38 20.3874 20.587 20.3874C23.9433 20.3874 26.195 18.6925 26.195 16.1651C26.195 13.0241 23.2567 12.5264 21.1073 12.1617L21.1115 12.1574Z" fill="#F7F7F8"/>
<path d="M1.70308 1.67896C0.880002 1.67896 0.210449 2.30972 0.210449 3.08209C0.210449 3.85445 0.880002 4.48522 1.70308 4.48522C2.52616 4.48522 3.19572 3.85445 3.19572 3.08209C3.19572 2.30972 2.52616 1.67896 1.70308 1.67896Z" fill="#F7F7F8"/>
<path d="M33.1806 4.03894C33.1508 3.97029 33.0953 3.92309 33.0314 3.90592L30.7967 3.28803L32.2381 1.43864C32.285 1.38286 32.3021 1.30562 32.2936 1.22839C32.285 1.15115 32.2509 1.0825 32.1912 1.03959L31.4023 0.425984C31.2999 0.344457 31.1549 0.374493 31.0824 0.490348L29.8115 2.53712L28.5407 0.490348C28.4938 0.417402 28.4255 0.378784 28.353 0.378784C28.3104 0.378784 28.2677 0.391657 28.2293 0.421693L27.3977 1.0353C27.3423 1.0782 27.3039 1.14686 27.2954 1.2241C27.2869 1.30133 27.3082 1.37857 27.3508 1.43864L28.7923 3.28803L26.5747 3.90592C26.5107 3.92309 26.4552 3.97029 26.4254 4.03894C26.3955 4.10331 26.387 4.18483 26.4083 4.25349L26.7111 5.24898C26.7324 5.31764 26.7751 5.36913 26.8305 5.39917C26.886 5.4292 26.9499 5.43349 27.0096 5.41204L29.1932 4.52811L29.0695 6.94819C29.0695 7.02114 29.0865 7.09408 29.1335 7.14557C29.1761 7.19706 29.2401 7.2271 29.304 7.2271H30.319C30.383 7.2271 30.4427 7.19706 30.4896 7.14128C30.5323 7.0855 30.5579 7.01684 30.5536 6.93961L30.4129 4.52382L32.575 5.40775C32.6944 5.45495 32.8267 5.38629 32.8693 5.24898L33.1934 4.25349C33.2147 4.18054 33.2105 4.10331 33.1806 4.03465V4.03894Z" fill="#F7F7F8"/>
</g>
<defs>
<clipPath id="clip0_1365_1629">
<rect width="33" height="20" fill="white" transform="translate(0.210449 0.378784)"/>
</clipPath>
</defs>
</svg>
